<svg xmlns="http://www.w3.org/2000/svg" version="1.0" width="2560.000000pt" height="260.000000pt" viewBox="0 0 2560.000000 260.000000" preserveAspectRatio="xMidYMid meet">
<g transform="translate(0.000000,260.000000) scale(0.100000,-0.100000)" fill="#0c2c4a" stroke="none">
<path d="M4302 2590 c-12 -5 -27 -21 -32 -35 -6 -17 -10 -402 -10 -1053 1 -1094 1 -1107 49 -1234 24 -61 91 -144 144 -176 115 -71 307 -85 476 -36 85 24 93 39 120 196 13 75 21 143 18 151 -3 9 -17 23 -31 32 -24 16 -29 16 -90 -5 -45 -14 -94 -22 -155 -23 -103 -2 -117 5 -131 69 -6 22 -10 488 -10 1057 l0 1018 -25 24 c-23 24 -29 25 -162 24 -76 0 -148 -4 -161 -9z"/>
<path d="M5322 2590 c-12 -5 -27 -21 -32 -35 -6 -17 -10 -402 -10 -1053 1 -1094 1 -1107 49 -1234 24 -61 91 -144 144 -176 115 -71 307 -85 476 -36 85 24 93 39 120 196 13 75 21 143 18 151 -3 9 -17 23 -31 32 -24 16 -29 16 -90 -5 -45 -14 -94 -22 -155 -23 -103 -2 -117 5 -131 69 -6 22 -10 488 -10 1057 l0 1018 -25 24 c-23 24 -29 25 -162 24 -76 0 -148 -4 -161 -9z"/>
<path d="M8115 2588 c-11 -6 -23 -16 -27 -22 -4 -6 -8 -563 -8 -1238 0 -1215 0 -1228 20 -1248 18 -18 33 -20 169 -20 132 0 152 2 172 19 l24 19 5 539 c6 585 4 563 65 667 37 63 126 143 192 173 78 36 243 44 324 18 72 -24 149 -101 180 -180 l24 -60 5 -578 5 -579 24 -19 c20 -17 40 -19 172 -19 137 0 151 2 169 20 21 21 21 27 18 638 -3 616 -3 617 -27 687 -64 190 -157 302 -323 386 -230 116 -561 99 -768 -40 l-60 -39 0 402 c0 256 -4 414 -10 433 -6 17 -22 35 -36 42 -33 15 -282 14 -309 -1z"/>
<path d="M945 2390 c-291 -46 -537 -193 -685 -410 -222 -326 -281 -826 -145 -1237 140 -422 452 -671 895 -712 320 -30 630 78 837 291 77 79 143 179 183 275 51 121 50 121 -225 219 -69 24 -76 25 -98 11 -14 -9 -33 -41 -46 -74 -55 -147 -171 -263 -318 -320 -56 -21 -90 -26 -193 -30 -225 -9 -348 35 -486 172 -63 63 -90 98 -122 165 -74 150 -86 212 -86 465 -1 185 2 231 18 290 72 270 237 451 467 512 95 25 303 23 386 -4 131 -43 225 -130 291 -266 53 -112 61 -112 271 -8 139 68 147 80 107 166 -85 187 -251 347 -437 422 -128 52 -244 74 -404 78 -82 2 -177 0 -210 -5z"/>
<path d="M5988 2359 c-37 -14 -48 -54 -48 -179 0 -129 10 -165 52 -179 20 -7 156 -11 374 -11 l344 0 0 -945 c0 -932 0 -945 20 -965 18 -18 33 -20 169 -20 132 0 152 2 172 19 l24 19 3 946 2 946 339 0 c215 0 349 4 369 11 42 14 52 50 52 179 0 129 -10 165 -52 179 -41 14 -1781 14 -1820 0z"/>
<path d="M15290 2363 c-8 -3 -23 -12 -32 -21 -17 -14 -18 -81 -18 -1129 0 -1100 0 -1113 20 -1133 18 -18 33 -20 169 -20 132 0 152 2 172 19 l24 19 3 471 3 471 465 0 465 0 24 25 c24 23 25 29 25 165 0 127 -2 142 -20 160 -19 19 -33 20 -490 20 l-470 0 0 290 0 290 611 2 611 3 19 24 c17 20 19 40 19 161 0 121 -2 141 -19 161 l-19 24 -774 2 c-425 1 -780 -1 -788 -4z"/>
<path d="M20460 2363 c-8 -3 -23 -12 -32 -21 -17 -14 -18 -81 -18 -1129 0 -1100 0 -1113 20 -1133 18 -18 33 -20 165 -20 132 0 147 2 165 20 21 21 21 28 18 806 -2 431 0 777 4 767 4 -10 136 -367 293 -793 163 -444 292 -780 302 -787 23 -18 273 -18 296 0 12 9 463 1210 591 1574 8 24 10 -161 8 -757 -2 -781 -2 -790 18 -810 18 -18 33 -20 165 -20 132 0 147 2 165 20 20 20 20 33 20 1133 l0 1114 -21 19 c-19 17 -39 19 -245 19 -187 0 -226 -2 -239 -15 -17 -18 -490 -1335 -562 -1569 l-48 -154 -53 174 c-29 96 -164 482 -300 858 -243 676 -247 684 -279 697 -24 10 -84 14 -225 13 -106 0 -200 -3 -208 -6z"/>
<path d="M2876 1855 c-100 -21 -161 -42 -251 -89 -109 -56 -218 -163 -268 -265 -39 -78 -45 -108 -24 -133 18 -22 190 -146 218 -156 39 -15 65 3 100 69 47 87 115 153 196 192 60 28 80 32 173 35 122 5 169 -6 236 -51 74 -49 106 -110 112 -207 2 -44 1 -80 -4 -80 -40 0 -488 -84 -559 -105 -194 -56 -352 -156 -431 -273 -128 -186 -106 -450 48 -599 123 -118 364 -186 575 -162 120 13 257 61 345 120 l73 48 15 -22 c60 -87 133 -131 245 -146 107 -15 277 12 310 49 18 20 41 215 30 257 -10 43 -44 55 -121 44 -71 -11 -113 -6 -126 13 -4 6 -8 219 -8 474 0 388 -3 475 -16 535 -50 224 -205 373 -454 438 -109 28 -313 35 -414 14z m494 -1132 c0 -88 -4 -114 -21 -150 -58 -120 -261 -204 -459 -190 -87 6 -140 25 -175 63 -21 22 -25 37 -25 85 0 54 3 63 37 100 67 74 160 108 443 163 96 18 181 34 188 35 9 1 12 -26 12 -106z"/>
<path d="M10725 1863 c-79 -11 -198 -48 -275 -86 -116 -56 -247 -185 -307 -302 -83 -161 -117 -319 -117 -530 2 -535 276 -864 763 -914 304 -32 590 67 748 256 91 110 113 162 83 198 -16 20 -239 135 -261 135 -34 0 -50 -13 -74 -60 -44 -88 -141 -149 -265 -169 -289 -47 -497 62 -580 304 -36 106 -104 95 578 95 328 0 602 4 608 8 27 18 37 62 42 186 7 196 -35 379 -119 523 -46 78 -179 209 -259 256 -73 42 -187 81 -282 97 -61 10 -222 11 -283 3z m322 -382 c96 -43 205 -185 228 -298 l7 -33 -430 0 -430 0 10 38 c29 106 111 220 195 268 76 45 118 54 248 51 100 -2 129 -7 172 -26z"/>
<path d="M12761 1860 c-112 -24 -215 -69 -297 -131 l-52 -38 -6 31 c-3 17 -6 41 -6 54 0 12 -12 32 -26 43 -24 19 -40 21 -146 21 -114 0 -153 -8 -170 -34 -4 -6 -8 -392 -8 -858 0 -835 0 -848 20 -868 18 -18 33 -20 169 -20 132 0 152 2 172 19 l24 19 5 539 c5 533 5 538 28 595 27 66 96 163 139 194 16 12 54 35 83 50 52 27 62 29 175 29 105 0 125 -3 162 -23 58 -30 110 -85 136 -141 22 -45 22 -58 27 -644 l5 -599 24 -19 c20 -17 40 -19 172 -19 136 0 151 2 169 20 19 19 20 33 20 518 0 531 4 576 51 677 33 70 126 166 196 200 50 25 73 30 160 33 77 3 113 0 152 -13 72 -24 144 -92 173 -163 23 -57 23 -61 28 -650 5 -573 6 -594 24 -608 15 -11 56 -14 167 -14 130 0 150 2 170 19 l24 19 0 594 c0 671 -1 677 -77 830 -89 177 -248 289 -476 334 -232 45 -497 -31 -652 -186 l-65 -65 -70 71 c-77 78 -183 137 -300 169 -71 19 -262 28 -324 15z"/>
<path d="M17629 1860 c-195 -33 -329 -99 -455 -225 -81 -80 -98 -103 -142 -195 -83 -170 -121 -370 -107 -563 35 -504 301 -799 762 -846 188 -19 379 15 538 97 70 36 109 65 176 132 73 73 93 100 138 190 68 139 100 267 108 431 25 535 -228 894 -686 974 -88 16 -254 18 -332 5z m256 -350 c186 -30 321 -177 362 -391 23 -126 14 -318 -21 -422 -46 -138 -120 -226 -234 -280 -65 -31 -71 -32 -202 -32 -169 1 -220 18 -314 105 -70 66 -115 146 -143 250 -23 88 -23 318 0 413 65 266 276 402 552 357z"/>
<path d="M19727 1854 c-127 -28 -221 -73 -296 -143 -32 -30 -41 -24 -41 23 0 41 -20 83 -46 95 -14 6 -72 11 -130 11 -100 0 -139 -8 -156 -34 -4 -6 -8 -392 -8 -858 0 -835 0 -848 20 -868 18 -18 33 -20 169 -20 132 0 152 2 172 19 l24 19 5 539 c4 341 10 549 17 568 42 121 116 211 211 257 62 31 73 33 162 32 64 -1 108 -6 134 -17 88 -38 104 -20 141 155 15 75 25 147 22 161 -17 66 -227 98 -400 61z"/>
<path d="M23755 1863 c-79 -11 -198 -48 -275 -86 -116 -56 -247 -185 -307 -302 -83 -161 -117 -319 -117 -530 2 -535 276 -864 763 -914 304 -32 590 67 748 256 91 110 113 162 83 198 -16 20 -239 135 -261 135 -34 0 -50 -13 -74 -60 -44 -88 -141 -149 -265 -169 -289 -47 -497 62 -580 304 -36 106 -104 95 578 95 328 0 602 4 608 8 27 18 37 62 42 186 7 196 -35 379 -119 523 -46 78 -179 209 -259 256 -73 42 -187 81 -282 97 -61 10 -222 11 -283 3z m322 -382 c96 -43 205 -185 228 -298 l7 -33 -430 0 -430 0 10 38 c29 106 111 220 195 268 76 45 118 54 248 51 100 -2 129 -7 172 -26z"/>
<path d="M25184 562 c-94 -33 -144 -90 -171 -194 -51 -198 119 -375 321 -336 179 34 273 222 197 393 -54 121 -214 185 -347 137z"/>
</g>
</svg>
