<svg xmlns="http://www.w3.org/2000/svg" version="1.0" width="1100.000000pt" height="255.000000pt" viewBox="0 0 1100.000000 255.000000" preserveAspectRatio="xMidYMid meet">
<g transform="translate(0.000000,255.000000) scale(0.100000,-0.100000)" fill="#212121" stroke="none">
<path d="M7240 2493 c-27 -10 -65 -37 -96 -68 -73 -72 -84 -115 -84 -317 l0 -158 -120 0 -120 0 0 -110 0 -110 120 0 120 0 0 -485 0 -485 -120 0 -120 0 0 -110 0 -110 413 0 412 0 0 110 0 110 -167 0 -168 0 -2 485 -3 485 228 0 227 0 0 110 0 110 -225 0 -225 0 0 148 c0 200 -20 186 259 192 l216 5 0 105 0 105 -250 2 c-206 1 -258 -1 -295 -14z"/>
<path d="M8680 2380 l0 -130 135 0 136 0 -3 128 -3 127 -132 3 -133 3 0 -131z"/>
<path d="M1890 1005 l0 -945 125 0 125 0 0 240 0 240 203 0 c135 0 224 5 268 14 163 35 265 132 299 286 8 39 11 167 8 440 l-3 385 -31 65 c-43 90 -74 124 -154 164 -91 45 -178 59 -353 54 -129 -3 -147 -6 -199 -30 l-58 -27 0 30 0 29 -115 0 -115 0 0 -945z m700 699 c19 -11 45 -35 57 -54 23 -33 23 -36 23 -405 0 -369 0 -372 -23 -405 -46 -69 -68 -75 -299 -78 l-208 -4 0 427 c0 465 1 474 57 511 45 29 75 33 218 31 120 -2 145 -5 175 -23z"/>
<path d="M3560 1840 l0 -110 100 0 100 0 0 -485 0 -485 -100 0 -100 0 0 -110 0 -110 375 0 375 0 0 110 0 110 -150 0 -150 0 0 408 c0 403 0 408 23 452 41 81 51 84 275 90 l197 5 3 118 3 119 -199 -4 -199 -3 -63 -32 -62 -33 6 35 7 35 -221 0 -220 0 0 -110z"/>
<path d="M5453 1935 c-178 -39 -251 -132 -274 -347 -17 -156 -6 -706 15 -783 41 -144 141 -228 306 -254 36 -6 181 -11 323 -11 l257 0 0 109 0 110 -262 3 c-259 3 -264 3 -307 28 -69 39 -85 80 -90 228 l-3 122 377 0 377 0 -4 253 c-4 226 -7 259 -26 317 -37 108 -104 179 -207 216 -67 24 -389 30 -482 9z m377 -227 c25 -13 55 -38 67 -57 21 -31 23 -46 23 -163 l0 -128 -247 2 -248 3 0 125 c1 206 35 239 250 240 96 0 117 -3 155 -22z"/>
<path d="M8280 1840 l0 -110 205 0 205 0 0 -595 0 -595 330 0 330 0 0 110 0 110 -205 0 -205 0 0 595 0 595 -330 0 -330 0 0 -110z"/>
<path d="M9790 1942 c0 -4 90 -157 199 -341 l199 -333 -214 -354 c-118 -195 -214 -359 -214 -364 0 -6 55 -10 138 -10 l138 0 149 256 c126 216 150 253 159 237 6 -10 70 -124 142 -253 l131 -235 148 -3 c137 -2 147 -1 143 15 -3 10 -100 175 -217 367 -121 200 -210 355 -206 364 3 7 91 153 195 323 105 170 190 316 190 324 0 13 -22 15 -134 15 l-133 0 -131 -226 -131 -227 -18 30 c-10 17 -67 119 -128 227 l-110 196 -147 0 c-82 0 -148 -3 -148 -8z"/>
<path d="M62 173 l3 -108 705 0 705 0 3 108 3 107 -711 0 -711 0 3 -107z"/>
</g>
</svg>
