<svg xmlns="http://www.w3.org/2000/svg" width="1097.71" height="170.13" viewBox="0 0 1097.71 170.13"><defs><style>.cls-1{fill:#152D2A;}.cls-2{fill:#2ebbac;}</style></defs><path class="cls-1" d="M313,33.25a8.13,8.13,0,0,1-2.23,2.69,5.3,5.3,0,0,1-3.15.86,8.4,8.4,0,0,1-4.7-1.89q-2.64-1.89-6.59-4.24a51.07,51.07,0,0,0-9.45-4.24,40.7,40.7,0,0,0-13.17-1.89,40,40,0,0,0-12.89,1.89,26.59,26.59,0,0,0-9.28,5.21,21.52,21.52,0,0,0-5.61,7.85A25.16,25.16,0,0,0,244,49.28a17.58,17.58,0,0,0,3.38,11.11,29.74,29.74,0,0,0,8.88,7.5,66.51,66.51,0,0,0,12.54,5.44q7,2.29,14.38,4.81t14.38,5.67a48.91,48.91,0,0,1,12.54,8A37.18,37.18,0,0,1,319,103.75q3.38,7,3.38,17.24a55,55,0,0,1-3.72,20.33,47.5,47.5,0,0,1-10.83,16.5,50.85,50.85,0,0,1-17.41,11.11A63.66,63.66,0,0,1,266.94,173a74.71,74.71,0,0,1-29.27-5.9,71.55,71.55,0,0,1-12.37-6.76,61.26,61.26,0,0,1-10.37-8.88l6.87-11.23a7.27,7.27,0,0,1,2.35-2.23,6,6,0,0,1,3.15-.86q2.41,0,5.56,2.52t7.79,5.56a59.57,59.57,0,0,0,11.17,5.56,44,44,0,0,0,15.81,2.52,42.63,42.63,0,0,0,13.75-2.06,29,29,0,0,0,10.25-5.84,24.61,24.61,0,0,0,6.36-9.16,31.54,31.54,0,0,0,2.18-11.91q0-7.33-3.38-12a27.4,27.4,0,0,0-8.88-7.73,64.65,64.65,0,0,0-12.49-5.27q-7-2.17-14.38-4.52a140.63,140.63,0,0,1-14.38-5.44,46.44,46.44,0,0,1-12.49-8.08,37.31,37.31,0,0,1-8.88-12.43q-3.38-7.45-3.38-18.44a43.69,43.69,0,0,1,3.44-17,43,43,0,0,1,10-14.55A49.31,49.31,0,0,1,251.42,8.79,58.57,58.57,0,0,1,273.35,5,71.24,71.24,0,0,1,298.73,9.3a58.64,58.64,0,0,1,20.1,12.6Z" transform="translate(-5 -4.95)"/><path class="cls-1" d="M369,78h8.31a19.49,19.49,0,0,0,7.2-1.11,12.63,12.63,0,0,0,5-3.81l54.34-62.53A14.61,14.61,0,0,1,449,6.27,15.73,15.73,0,0,1,455.59,5h20.49L413.31,76.83a29.21,29.21,0,0,1-9.25,8q6.32,2.23,11.13,8.9l65.35,79.4h-21q-4.69,0-6.91-1.35a12.78,12.78,0,0,1-3.86-3.69l-56.21-65.93a14.54,14.54,0,0,0-5.09-4.22q-2.75-1.29-8.26-1.29H369v76.47H344.92V5H369Z" transform="translate(-5 -4.95)"/><path class="cls-1" d="M566.37,153.77a45.62,45.62,0,0,0,18.21-3.46,38.31,38.31,0,0,0,13.58-9.66,42.32,42.32,0,0,0,8.49-14.81,58.81,58.81,0,0,0,2.93-19V5H633.7V106.81A77,77,0,0,1,629,134a63.26,63.26,0,0,1-13.35,21.67,60.5,60.5,0,0,1-21.2,14.29,79.38,79.38,0,0,1-56.27,0A61.19,61.19,0,0,1,517,155.64,62.75,62.75,0,0,1,503.6,134a77,77,0,0,1-4.68-27.17V5H523V106.81A58.4,58.4,0,0,0,526,125.72a42.88,42.88,0,0,0,8.49,14.87,37.84,37.84,0,0,0,13.64,9.72A46,46,0,0,0,566.37,153.77Z" transform="translate(-5 -4.95)"/><path class="cls-1" d="M689.21,162.9h78.58v10.19H677.27L677,5h12Z" transform="translate(-5 -4.95)"/><path class="cls-1" d="M865.8,173.09a4,4,0,0,1-4.33-3.28l-1.64-14.87a122.34,122.34,0,0,1-9.54,8.43,57.13,57.13,0,0,1-9.9,6.32,48.64,48.64,0,0,1-11.12,3.92A59.74,59.74,0,0,1,816.15,175a38.65,38.65,0,0,1-11.59-1.76,28.59,28.59,0,0,1-10-5.39,26.41,26.41,0,0,1-7-9.31A32.2,32.2,0,0,1,785,144.87a24.22,24.22,0,0,1,4.22-13.7q4.22-6.32,13.17-11t23.07-7.5a200.72,200.72,0,0,1,33.9-3.28V97.21q0-16.16-7-24.89T831.73,63.6a39,39,0,0,0-14.35,2.34,50.82,50.82,0,0,0-10,5.15,62.93,62.93,0,0,0-6.67,5.15q-2.58,2.34-4.33,2.34a3.78,3.78,0,0,1-3.51-2.11l-2-3.4a67.71,67.71,0,0,1,19.21-13.82,53.55,53.55,0,0,1,22.84-4.68,41.66,41.66,0,0,1,16.39,3,30.31,30.31,0,0,1,11.65,8.55,37.43,37.43,0,0,1,7,13.47,62,62,0,0,1,2.34,17.62v75.88ZM819,166.88a49.86,49.86,0,0,0,12.47-1.46,46.17,46.17,0,0,0,10.54-4.1,51.41,51.41,0,0,0,9.08-6.26q4.22-3.63,8.31-7.85V116.88a208.1,208.1,0,0,0-28.63,2.52A82.53,82.53,0,0,0,810.94,125q-7.79,3.51-11.48,8.37a17.82,17.82,0,0,0-3.69,11.07,24.42,24.42,0,0,0,1.93,10.13,19.47,19.47,0,0,0,12.47,11.07A29.84,29.84,0,0,0,819,166.88Z" transform="translate(-5 -4.95)"/><path class="cls-1" d="M906.56,173.09,907,5h11l-.2,71.95a60.89,60.89,0,0,1,17.92-16.28,44.53,44.53,0,0,1,23-6q21.43,0,33.43,14.81t12,44.56a82,82,0,0,1-3.34,23.83,56.56,56.56,0,0,1-9.85,19.21A46.74,46.74,0,0,1,975,169.93a48.31,48.31,0,0,1-21.75,4.68q-12.2,0-21-4.74a43.19,43.19,0,0,1-15.13-14l-.7,14.29q-.35,2.93-3.13,2.93ZM955.45,63.6a38.28,38.28,0,0,0-21,6A59.47,59.47,0,0,0,917.68,86.2v61.48q6.69,10.07,14.78,14.11a45.23,45.23,0,0,0,36.71.29,35.55,35.55,0,0,0,13-10.6A47.72,47.72,0,0,0,990,135.09a78.67,78.67,0,0,0,2.64-21q0-26-9.62-38.23T955.45,63.6Z" transform="translate(-5 -4.95)"/><path class="cls-1" d="M1097.44,71.09a2.71,2.71,0,0,1-2.58,1.64,6.34,6.34,0,0,1-3.34-1.46,53.65,53.65,0,0,0-5.39-3.28,43.75,43.75,0,0,0-8.2-3.28,41.71,41.71,0,0,0-11.89-1.46,34.94,34.94,0,0,0-11.54,1.81,28.67,28.67,0,0,0-8.9,4.85,22,22,0,0,0-5.74,7.06,18.43,18.43,0,0,0-2,8.47,14.41,14.41,0,0,0,2.81,9.11,24.19,24.19,0,0,0,7.38,6.19,56.42,56.42,0,0,0,10.36,4.44q5.8,1.87,11.89,3.74t11.89,4.16a44.76,44.76,0,0,1,10.36,5.68,26.89,26.89,0,0,1,7.38,8.31,23.73,23.73,0,0,1,2.81,11.94,36.27,36.27,0,0,1-2.75,14.17,32.23,32.23,0,0,1-8,11.36,38.17,38.17,0,0,1-12.82,7.61,49.84,49.84,0,0,1-17.33,2.81q-12.3,0-21.2-3.92a59.46,59.46,0,0,1-15.93-10.25l2.69-4a4.54,4.54,0,0,1,1.29-1.41,3.58,3.58,0,0,1,2-.47q1.52,0,3.75,1.87a46.6,46.6,0,0,0,5.8,4,47.78,47.78,0,0,0,8.9,4,40,40,0,0,0,13.17,1.87,37.83,37.83,0,0,0,13-2,27,27,0,0,0,9.37-5.56,23.18,23.18,0,0,0,5.68-8.26,26.27,26.27,0,0,0,1.93-10,16.1,16.1,0,0,0-2.81-9.72,24.11,24.11,0,0,0-7.38-6.56,51.63,51.63,0,0,0-10.36-4.57q-5.8-1.87-11.95-3.75t-11.94-4.1a43.16,43.16,0,0,1-10.36-5.62,27.1,27.1,0,0,1-7.38-8.26,23.89,23.89,0,0,1-2.81-12.12A27.78,27.78,0,0,1,1030,74.25a30.35,30.35,0,0,1,7.67-10.07,37.74,37.74,0,0,1,12.12-6.91,47.07,47.07,0,0,1,16-2.58,53.82,53.82,0,0,1,18.91,3.09,46.2,46.2,0,0,1,15.17,9.44Z" transform="translate(-5 -4.95)"/><rect class="cls-2" y="0.05" width="24" height="168"/><rect class="cls-2" x="55" y="0.05" width="12" height="168"/><rect class="cls-2" x="78" y="0.05" width="24" height="168"/><rect class="cls-2" x="122" y="0.05" width="12" height="168"/><rect class="cls-2" x="144" y="0.05" width="24" height="168"/></svg>
